<svg width="76" height="76" viewBox="0 0 76 76" fill="none" xmlns="http://www.w3.org/2000/svg">
<rect width="76" height="76" rx="10" fill="#E9E9E9"/>
<path d="M28.731 54H21.43V28.226H28.731V54ZM29.417 20.778C29.417 22.1173 28.976 23.179 28.094 23.963C27.2447 24.7143 26.232 25.09 25.056 25.09C23.88 25.09 22.851 24.7143 21.969 23.963C21.1197 23.179 20.695 22.1173 20.695 20.778C20.695 19.4387 21.1197 18.3933 21.969 17.642C22.851 16.858 23.88 16.466 25.056 16.466C26.232 16.466 27.2447 16.858 28.094 17.642C28.976 18.3933 29.417 19.4387 29.417 20.778ZM41.8171 40.28C41.8171 44.3633 43.4667 46.405 46.7661 46.405C47.5174 46.405 48.2197 46.307 48.8731 46.111C49.5264 45.915 50.0817 45.6863 50.5391 45.425V33.763C50.1797 33.6977 49.7551 33.6487 49.2651 33.616C48.7751 33.5507 48.2034 33.518 47.5501 33.518C45.6227 33.518 44.1854 34.155 43.2381 35.429C42.2907 36.703 41.8171 38.32 41.8171 40.28ZM57.8401 50.766C57.8401 54.98 56.7621 58.0997 54.6061 60.125C52.4827 62.183 49.1834 63.212 44.7081 63.212C43.1401 63.212 41.5721 63.065 40.0041 62.771C38.4361 62.5097 36.9824 62.1503 35.6431 61.693L36.9171 55.568C38.0604 56.0253 39.2527 56.3847 40.4941 56.646C41.7681 56.9073 43.2054 57.038 44.8061 57.038C46.8967 57.038 48.3667 56.5807 49.2161 55.666C50.0981 54.7513 50.5391 53.5753 50.5391 52.138V51.207C49.7551 51.5663 48.9384 51.844 48.0891 52.04C47.2724 52.2033 46.3741 52.285 45.3941 52.285C41.8334 52.285 39.1057 51.2397 37.2111 49.149C35.3164 47.0257 34.3691 44.0693 34.3691 40.28C34.3691 38.3853 34.6631 36.6703 35.2511 35.135C35.8391 33.567 36.6884 32.2277 37.7991 31.117C38.9424 30.0063 40.3307 29.157 41.9641 28.569C43.5974 27.9483 45.4431 27.638 47.5011 27.638C48.3831 27.638 49.2814 27.687 50.1961 27.785C51.1434 27.8503 52.0744 27.9483 52.9891 28.079C53.9037 28.2097 54.7694 28.373 55.5861 28.569C56.4354 28.7323 57.1867 28.912 57.8401 29.108V50.766Z" fill="#272727"/>
</svg>
